/* XPM */
static char *fc83698fc094469dad9547a8eb784916JwUY2L2ex08DzLgB[] = {
/* columns rows colors chars-per-pixel */
"64 64 8 1 ",
"  c #B06C44",
". c #9B5E3D",
"X c #8A5438",
"o c #794932",
"O c #693F2D",
"+ c #583528",
"@ c #482B23",
"# c #35201D",
/* pixels */
"@####+o.XOX+OX.. XO@ X... +O+@ooOO+OO+XXXXO@+oXXXo...XX+oXXX+@+@",
"@####+OXXooOO..  oO@X   .X+o+@XoOO+OO+ XooX@+o.oXOX.XXXoXoOo@#+@",
"@####OO.XOOOO..  X+@X    .oO++XOOo@+@. XooX+@+X.X+...X oXXoo@@+@",
"+#@#@++.oXOOo .X. +#O    o++O+XXXo+@+. XOOoo@OXX+oo..X.oXooO++@@",
"@@@#@O@OXo@oX XoO.+#OX X o@ooOoooo+@o. XOOOO@+XX+oX..X.Xo.XO++++",
"#O@#@@@++++o...XOX+@OOXooo+XooOo.Xo+OO.XoXXo+++++OX.. oXoXooO@+@",
"@O#@#@++++Ooo..XX.O@Ooo.oOo.XoooX..OO+Xo.o.XO+OO+ooX..oXXXXO++O@",
"@+#@@@+++@+oXoXXX.X+@XX +Oo .XXoX..+o+XO.. .+@OO#oo  .oOooX+O@+@",
"@@@@+@@+@@@o XXXX .O@oX.+@X  XXXX .o+O+X   .++++#++o..XooXO+O@@#",
"@@@@+o+@@#+X.o... XO@oXoO@...X..X ..+OOXX  .O+@@#++o  XOOX+OO@@@",
"@#oo..X+##O..o..X.+o@o.oO+..XXXXX ..OOO.X . OO#@+@@+X.XOo.oO+#@@",
"@@oo....@#+X ...oXX.O+o++@...XX.XXXXooO XXoX+O@@oX@+OX+oXo+O+@@#",
"#OOOXXXX+#+O X..XO+ .O+++@X. XX.XXXXo+O.X.XXO++@o.XOoX++o+#OoO@#",
"#+OOOooO@@++X.o. o+.  O+@@o. ..X.oXX.++o..XXoO+@X. X.+@++@#o+oO#",
"#@++@++O++X@+ oX..O.  o+O++  ..XXXXXXO@.XXX..oO@X..o XOO@@@o@+O@",
"##@+ooOO+oX++X ..oOoX XoOO@. X..X.XoX+@X.XXXXo++oO.o. +O@@@X+++#",
"##@XX X++oX++oX.OOOoo O@oO+. X .o.oXoo@o.oXXXO++XOoX..o@@#@.+O+#",
"##+oX oOoo O+oOoO+OoX.O+.Oo. XOoX oooX#oXXoX oO+XOooooo@@@Oo@++#",
"+++XOXXoOoX @O+oooOXX O@OX O .X.. +oXX@o..X..OOX.OOooooO@@#++@+@",
"+@+O+ooO@oXXO@OoXooo. O@oX.@  X...OoOooO. .. OooXOOoOOoo@@#++@@@",
"@@+oOooo@XoXX#oX.OX.X.O@o..o. X..O..XXOXo.o..OXX.ooXoOOo@+@@O@@@",
"+++oOXo+@..XX@oX.ooXX.O@O   +XOOXOXXooX +.X.Xooo.XXXooOo@+@#@@@+",
"@+oOO+o++ XoX@oX.ooXX o+oX. XOOO+X.ooX..@o..oOOoXXo.OooX+++#@+@+",
"@+oooOoO+XoXo+oX.OoX..o+oX. OOoXOo.oOX o+@O.O+OoXXXXOOOo@++#@@++",
"#+OO+XoO@.X.X@oXX+oX.O@+o X.+oo.X.OO+XXX+@oO+++oXXXXOo+X@++@@@@@",
"##+ooooo#XX X@oXXOOXXO@O... +oXXXXo+@X.XXO+OOO+XooX +OOO@@++++@+",
"##@OoOo@@.o X#XXoOoXo+#O....oOXXX.+@@X ..+O+XOOX   X+ooo+@@+++@@",
"@#@oXoO+@.XXX#oXO+oO+@#O.X.X.ooXoXo@@XO.X@OoOOO...XO+ooo++@++++@",
"#@@@X.o@+oX.O#OoXOX+#@@O..X..OOoo.X@OXo.o@OOoo+...XO+OoO+o+++++@",
"#@@@++OO+X.X+@+..O++OO++X.XoX@OoooO@ooX O+OoO++... o+OOOoo+++@@@",
"#++@++@Ooo.o@++..+@OoXO@X.oXo@+ooX+++.X.o++OOO+X..O+XoOOXoO++++@",
"#+O+O@+oOOO+OXoOo@OXX.O@o X o+oO+OX@O.o oOOOOOOOooO+.XXXooO++@+#",
"#++O+#+o++Oo+.X++oXX.Xo@O   oOXX+Xo@o O.OoX.oOO+o+O+.XXXoooO+@@#",
"#@+o+#XOo@OoO.o+@.X....@OX. Oo..oo++O.oo+o. ooO+OO+# X..oXooO+@#",
"#@++@O.OX+++o.X @.....o@+X.XO...XX+O+X..@oX oo++OO@#.X. oXooo@@#",
"#@+@#ooX.O++..XX+....XO@OOoOX. .X.+O@OXX+ooooX++++@@X.. XXXoo#@#",
"#@+O+@XXXO@@.XoXXoo.Xo #OOo+X.  .Xo++Ooo+oX.XX@@+OoOX.  .oooo#@#",
"#@OOo@Xoo++@XoXX.+OX..X#+OO+Xoooo@ #@+OOOXoXXo+@oX.OX. .o..Xo###",
"##oOo@Xoo++#OXXX +OoXXX@@+oOOOXOO+X##+oOX...XO++oX.@... o..o+###",
"##+Oo@oXoOO@+XXX.+.XXOX+#O.XOOO++OO@#+X.X.X.OO++o X+XX..XX.X@###",
"##@++OoXoOO@+XX.XOXOOoX+@XoXoo+@@OOO@+O XX. +O@Oo  OO...XO.X@###",
"@##@@OXXoo+@@XX..ooOooX++..XXX@@+OOo+@O.... ++Oo.X..@.  .OXO@###",
"@####+XXoo++@Xo..OXooOoO+...Xo@@OOOXX+oo... O@XXXoXX@o. .oX@####",
"@##@#+X.XO++@+...oOOOoo@@..XX+@OooooXo++  . o@X...o.#O  XXX#@#@#",
"@####OXXooOO@+XXXoo+OOO+@X.. @@oXXo..X+@. X X@O...oX@+ .X..@#@@#",
"+@##+o.XX..Xo@OoOOOOOOoO@..oX++OXoX..o++X oo+@+.X.XO+@. ..oO#@+#",
"++@#@+.XX.oX.@OOoooOOooO@.XXO@+Oo@X  X@@OoXX@+oXXXXXO@O.OXOo#O+@",
"@O++@+XXX.X. @++oooOOOO++O O+@+O+@.Xoo@+O++O#OXXXXXO+++O+o++@OO@",
"@O++@+OXXoX. +@+OOOOOOo+@+oO++OO#+X.X.@@O++O#o .XoX+@O@+@O@o++O@",
"@OO++@+.X... o@@+OOOOO.o@+O+@oXo+o..X o#O+@O#O .X.X@+X++#++o++++",
"@OO++@@X   ..OOo+OOOOOoO++O++oooo.. X..++@@+#+o.X.o#OoX@#O..O+@@",
"@++++ooO   ..O...oooO+OOO@+@@+@+XO.XX..o##@@@Oo...o@+XX+++.XO@@#",
"@@OOoo.o   XXXXXXOXXooXXXo@#@##@XXXXX.X+##OOooX..oO++o.++OXOX#@#",
"@@+@oo.o  .X  oXX+ .X....X+#@@#+XO.XX.X+##OooXOoo X++o.O@ooO+@#@",
"#@@@oO.oX X.X o.X+. .X....X@@@@OX+. .XO+#+oooX+X. X++o.X+oXo+@##",
"@#@@OOX.X  XXoX.O@. .X. ...@@@OoX+O.  X++oXXooooXXXO+o.+@OXoO+@#",
"@@##+oX.XX..Xoo +@X.... ...+++O.XOO.X X+o..OoXoXXoX.@oO##X.oo@++",
"##@#+X.oo  .ooo.+@o XX ...X+#+oXXOo X.o+X..OXoO.Xoo.OO+#@.oOo+++",
"@###OX ...X.OXX.X+. .X  X.++##oXoOX.oXXOo.oooooXooo.XO+#@XoOoO@+",
"@@##OXXOX.o.O..oO+. .o  ..++@#OOO+oXX.oO.OO++OXXoXo..O+#+XXOOo@+",
"@@##oXoXoXoX+XXoXOX Xo. X O+@#OOOOoo..+XXOo+@@XoO.X..O+@+XXOOO@@",
"+@##Ooo.X.o.+..Oo++ .o..  o++#Oo++O+ X@ .XoO#@X.X...X +++ooO+O#@",
"+###@Oo..oXooXXXo+Oo X... o++#ooO+++XX+.oXoO@+XXXo....O@oOOoo+@@",
"@###@+oX XoOOoo..O+O X .. oO+@ooO+++OOOXoXO++O.XXO.. .X@oXOXo@@+"
};
