/* XPM */
static char *b6ef544b6afd4fd5fb5510703e7694ffsFHEtaJG8chKLY99[] = {
/* columns rows colors chars-per-pixel */
"64 64 165 2 ",
"   c #1F1315",
".  c #221516",
"X  c #261817",
"o  c #2A1A17",
"O  c #261718",
"+  c #271819",
"@  c #2B1A1A",
"#  c #321E1C",
"$  c #36211D",
"%  c #3C241E",
"&  c #361F20",
"*  c #3C2421",
"=  c #41271E",
"-  c #44291F",
";  c #492D1F",
":  c #412621",
">  c #452A21",
",  c #4B2D22",
"<  c #452A28",
"1  c #4E2E28",
"2  c #4E3023",
"3  c #4F3029",
"4  c #543324",
"5  c #593626",
"6  c #5D3926",
"7  c #54332A",
"8  c #5B3629",
"9  c #5E3929",
"0  c #593631",
"q  c #613C27",
"w  c #633D2B",
"e  c #6A3F2E",
"r  c #6B3F31",
"t  c #66412D",
"y  c #6B422D",
"u  c #6E482F",
"i  c #72452F",
"p  c #76492F",
"a  c #794B2F",
"s  c #654332",
"d  c #6C4532",
"f  c #6E4933",
"g  c #744531",
"h  c #744C34",
"j  c #7B4C33",
"k  c #744D39",
"l  c #7D4D3C",
"z  c #7B5137",
"x  c #76503C",
"c  c #7D533B",
"v  c #7F5740",
"b  c #824E35",
"n  c #864F39",
"m  c #855135",
"M  c #895436",
"N  c #82563D",
"B  c #8C5539",
"V  c #84593E",
"C  c #8A5A3D",
"Z  c #91573B",
"A  c #955B39",
"S  c #965B3B",
"D  c #975D3A",
"F  c #93593C",
"G  c #965B3C",
"H  c #965C3D",
"J  c #935A3A",
"K  c #995D3C",
"L  c #995E3D",
"P  c #9B5E3E",
"I  c #9C5E3E",
"U  c #9B5E3D",
"Y  c #9D613D",
"T  c #9D613E",
"R  c #9F613E",
"E  c #9F623E",
"W  c #9C603D",
"Q  c #A1633E",
"!  c #A8683F",
"~  c #805740",
"^  c #825740",
"/  c #825940",
"(  c #835943",
")  c #875D46",
"_  c #865A41",
"`  c #885E47",
"'  c #8A5D43",
"]  c #885E49",
"[  c #8D5F48",
"{  c #9F5D41",
"}  c #8E6146",
"|  c #8F634B",
" . c #8E6249",
".. c #916246",
"X. c #9F6240",
"o. c #95674D",
"O. c #94654A",
"+. c #98674B",
"@. c #97684C",
"#. c #9B684B",
"$. c #9B6A4D",
"%. c #966950",
"&. c #9D6C51",
"*. c #9F7055",
"=. c #A36341",
"-. c #A26440",
";. c #A56540",
":. c #A76740",
">. c #A66542",
",. c #A56541",
"<. c #A96743",
"1. c #AB6645",
"2. c #AB6A41",
"3. c #A96842",
"4. c #AC6A42",
"5. c #AB6845",
"6. c #AD6A42",
"7. c #A26D4E",
"8. c #B06D42",
"9. c #B06C46",
"0. c #B46E46",
"q. c #B36F45",
"w. c #A3704F",
"e. c #B77145",
"r. c #B77245",
"t. c #B97443",
"y. c #B87147",
"u. c #BF7848",
"i. c #A16E52",
"p. c #A47254",
"a. c #AA7555",
"s. c #AE7956",
"d. c #A67459",
"f. c #AA7659",
"g. c #AE795A",
"h. c #B17A56",
"j. c #B37D5C",
"k. c #B87F5C",
"l. c #B47F61",
"z. c #C47A49",
"x. c #C37C4B",
"c. c #C27949",
"v. c #C87C4B",
"b. c #B7805E",
"n. c #BA825E",
"m. c #B68162",
"M. c #BB8462",
"N. c #BF8965",
"B. c #BE8769",
"V. c #BF886A",
"C. c #C08764",
"Z. c #C38A65",
"A. c #C98D66",
"S. c #C38A6A",
"D. c #CA8F6A",
"F. c #CC9067",
"G. c #CC916A",
"H. c #D2946D",
"J. c #D6986F",
"K. c #D8996E",
"L. c #CE9271",
"P. c #D29571",
"I. c #D79971",
"U. c #DB9C71",
"Y. c #E09F74",
/* pixels */
"- . + O $ 4 j S M i m 4 w B G ;.1.B r - ;.J I =.H 8.9 y 9 > j j d e 9 w y 4 m B b M g 1 7 g Z M m g J T Q M Z 8 j B m B 4 , 4 > ",
"- . * + # 5 y m m j i r e =.;.3.1.b y : J ;.5.4.=.J 9 i 7 3 M g e e 4 w w 7 r.J g j b < 4 g F g J w J K B m B j B j y a , % 4 - ",
", # * @ % t y K M g y r d T ;.v.<.m 7 * m y.0.y.9.T g e 0 4 B e s g > 6 1 D ! m g g m 7 : 9 J H M 5 T T K m ;.g B J i j = , 4 > ",
"4 % * # > 5 4 m j B w y b 4.-.M J <.8 3 9 t.u.x.z.j 4 8 d 8 b B B d s > 9 D 4.m d y j h 1 w B J 5 b j D T b S j m m p t 4 4 , > ",
"- 4 3 * , q w f g i > h s D B h h B h / o.C | ] #.( k l h w j j j ] ) 5 j S 3.m h ^ h g : 4 z h w g d k f j T b g S m y 4 4 q 4 ",
"% q , * > > d _ O.d h V ' f d t _ V O.O.V N c _ N _ / z h g y g z ' o.&.c h X.h V ..@.' z h z h c _ O.N _ N j ) o./ j j w > 4 2 ",
", q % * $ 5 o.N V O.@.@.O.O.&.&.@.g.S.g.d.g.&.&.d.@.@.i.&.c k _ d.m.g.m.l.g.p.O._ ' O.$.$._ [ ' N c @.@.O.|  .c V d. .y 9 4 q > ",
", 5 * < : f c @.O.' f.s.j.M.m.m.G.p.$.P.Z.D.S.M.f.M.I.D.m.m.D.D.m.M.Z.S.Z.Z.D.j.j.p.p.j.f.g.f.@.p.j.p.b.a.i.f.p.' z } t q , 4 2 ",
", - * < 7 k O.&.i.j.O.f.M.G.#.j.j.A.p.} p.a.b.M.M.n.j.M.M.G.M.M.Z.M.M.M.g.m.M.M.j.m.M.d.| ' _ O.h.$...V m.p.p.j.g.O._ g y , , % ",
", = : < 1 N ..O.p.O.O.G.D.p.b.A.j.N c N h } @.p.f.M.j.g.p.p.&.&.p.p.p.a.p.@.O.} o.@.O.o.O.O.} _ N p.m.O.N M.g.@.p.i.' / q : % = ",
"> $ i g } } ..@.m.O.Z.g.} } V V c c _ / ' } V N N _ ' V c z N O.@.O._ j z c / c N ' ..O.' ' _ N V N } D.f.V p.f.@.$._ N 5 % , - ",
"= , i h } O.p.[ O.M.j.N h j c V [ _ O.l.l.p.&.&.O.V c N } ' V u g h h z c ' | o.o.f.m.m.j.i.i.O.' V _ [ D.m.O._ O.#..._ 8 1 , % ",
"$ y u y  .N O._ j.Z.' z N ^ &.g.d.@.M.m.m.m.D.M.f.&.p.@.@.i.} | O.o.O.' [ O.' O.f.j.M.S.B.M.G.B.@.[ c _ ' m.m.S._ N ..O.d g 4 % ",
"$ 6 y w c [ ' O.M.a.V z V b.Z.C.Z.j.p.m.g.G.j.g.C.Z.Z.M.m.j.j.M.S.L.S.D.M.C.A.M.h.j.j.g.Z.m.i.g.C.o.' c N a.D.S.b.c h h 9 j y $ ",
"$ , 4 4 s N N $.Z.O.V ' i.j.p.j.s.Z.f.O.Z.f.b.j.g.p.p.j.D.M.h.7.7.M.M.Z.Z.J.j.@.i.a.7.M.j.h.h.j.g.m.@._ N O.b.G.S.z _ h ; 4 q , ",
"% % > 4 c _ c &.f._ N C b.h.n.a.m.p.p.g.f.j.p.f.p.h.n.h.7.7.a.C.M.h.n.f.h.n.H.H.m.$.#...n.j.g.p.s.g.Z.&.V @.f.A.j._ _ h 5 5 6 % ",
"$ @ > m _ } h &.&.' z $.j.n.$.C.p.p.f.A.j.&.g.m.n.f.j.n.j.M.N.j.C.g.p.f.g.f.f.p.b.H.M.@...g.b.f.p.a.n.f.' _ M.@.H.o._ z 4 y 4 @ ",
"# * 4 f | O.N @.&.O.' [ m.f.m.p.@.j.G.C.j.f.i.a.w.#.' V _ } O.O.@.&.O.&.&.@._ _ ' ) g.Z.j.} g.n.g.f.j.M...N Z.M.M.p._ c 2 6 4 @ ",
"4 4 4 y _ f.[ ..S._ _ _ p.Z.&.p.g.G.j.i.@.$.' z j N ..$.$.+.C V V ' } .._ N ' _ N z z O.A.j.V b.Z.h.M.S.O.V i.n.d._ } j 4 - 4 : ",
"4 % 5 y d a.V O.l.' ' c d.o.&.b.K.Z.f.S.a.C c _ 7.7.O.c h h h c _ o.&.p.g.f.&.j.m.' z V O.D.m._ s.C.j.m.p.V } b.| V ..g q , , , ",
", , 4 j y ' V O.a.[ z c &.f.A.G.g.f.h.G.V c } m.D.j.o.p.p.i.i.&._ N N z z @.M.D.G.S.O.z ' o.H.j.' p.n.S.p._ } j.' } p.O.t , 2 2 ",
"4 4 4 p y h O.p.f.' ' f O.A.M.$.h.g.M.n.h V g.d.p.M.Z.j.j.j.j.C.l.i.i.o.@.} O.$.f.Z.M.@.V O.a.D.j.O.#.a.' O.' Z.@._ @.O.h - , q ",
", 9 i y u h ' Z.g.c h c ' @.f.p.j.m.m.N h i.@.m.&.Z.C.n.a.h.@.&.j.j.h.f.i.O._ c V } n.O.c _ @.C.G.h.O.$.c _ O.p.p.' _ O.8 4 4 6 ",
", 6 a j i g c j.Z.O.} O.c j.h.f.j.m.O.j V &.M.f.C.b.&.&.@.N ' &.m.m.N.M.M.f.@.[ [ c $.c z _ } #.C.A.j.m.c c p.O.&.} O.N = - 4 4 ",
"% 4 y i 9 h ' $.f.@._ O.@.' j.h.j.&._ f $.f.} k.@.c c z _ O.O.' ' o._ O.&.&.i.i.O.' } ' _ N @.p.n.Z.C.M._ N ' a.@.' &.c , - , ; ",
"$ $ 6 p g h O.f.$.' O.' $.*.&.n.b.N } h p.D._ M.N N z @.j.&.O.' V N V _ ' V o.&.j.&.O.[ o._ f.s.s.A.A.M.V V z j.O._ O.w 9 5 - 4 ",
"$ # , q g / @.g.i.N O.O.g.D.P.f.p.O.c N g.f.$.&.[ z O.o.O.&.p.o._ N } @.O.' ' l.m.n.f.&...V } a.j.n.C.h.V ' h g.O._ c 4 4 9 2 ; ",
"% % > j C V } f.N _ V p.j.M.m.p.j._ h O.@.O.j.f.O./ O.&.m.M.g.M.m.g.h.f.j.&._ | f.Z.g.m.c ..o.f.$.#.f.f.c [ V g.| o.k , 9 4 4 , ",
"$ > , ; V N @.M.[ ' C &.g.g.m.g.j.j } O.p.' C.g.V @.h } m.j.k.j.h.7.+.} j.&._ z &.g.m.M.g } o.p.a.$.$.f.h N ' j.p.O._ w 4 4 4 , ",
"% , , = h V l.m...@.V o.&.l.B.A.+.O.+.' g.f.M.g.' O.h _ m.f.h.f.7.s.f.i.h.g.N O.p.f.m.g.h N $.| n.s.s.&.c _ p.f.@.' ' h 4 2 2 ; ",
"% 4 5 2 z c p.h.} &.V O.O.m.m.M.z p.O.@.j.A.h.j.| [ h c j.f.a.f.h.s.s.h.j.g.V O.g.h.$.m.N V } ' n.s.a.@.N O.g.&.#.[ ' d 5 4 4 - ",
"% 4 q 5 d _ O.M.&.&.C } j.M.p.m.h l.' ' g.C.p.j.[ ' N V p.i.s.f.p.h.j.s.n.p.V +.j.i.i.j.' c ' #.l.s.a.@.z O.C.p.@.+.../ 4 2 5 # ",
"% 5 q q t _ ..M.f.O.' ' l.M.f.G.g p.O.} &.j.j.h.V ..c g.p.f.h.s.n.j.j.s.s.O.c [ m.f.p.g.O.' c p.p.j.j.i.N O.j.m.@.V @.O.4 , 2 + ",
"# : 8 p 5 [ ' f.C.O...@.g.j.p.C.z f.$...V.g.h.a.N ' i.g.n.' ..#.i.j.M.h.h.z N O.j.f.a.g._ [ c i.f.n.g.p._ _ p.M.i.C @.@.d 4 , + ",
"% = 5 4 , V ' m.M.&...$.g.M.f.g.V $.$.p.D.S.h.$.C } p.#.i...' +.f.+.$.7.} h N &.j.7.p.p.' O.N O.i.j.p.i.V _ ' M.$.N O.@.f ; - + ",
"$ , 4 - % z } j.n.p.#.} O.j.i.M.O.N O.i.S.Z.s.m.' ' M.+.g.+.p.p.#.p.j.s.j c ' _ h.p.l.g.' } _ $.g.j.a.p.O.N N g.} ' @.g j # - X ",
"# , 4 w 9 z } M.b.j.#.c c &.i.M.O.h #.$.G.Z.Z.Z...V V g.g.O.$.a.a.a.N h z V C O.g.j.C.m.[ N ' o.f.k.p.D.O.c N ..N ..} j j # = @ ",
"@ > y q g | V j.a.Z.O.' V f.a.g.O.c O.o.a.g.j.j.f.#.} N p.@.g u f h h h V $.O.O.Z.a.j.S.' c ' f.f.j.s.Z.@.z V .._ O...M p % # @ ",
"o # j w z O.V m.s.m.V @...m.a.g.$.[ ..p.p.j.p.h.m.&.} _ z h N N h z N } ..V i.i.Z.f.n.m.h z &.@.i.g.j.M.@.N 7.$.' V B m 4 # + X ",
". @ 6 y ' +.N ' @.@._ $.g.C.f.n.d.$.h C.O.M.m.n.f.g.&.' ' _ O.O...@.l.m.f.f.g.M.j.h.j.f.z } p.$.n.p.b.f.@.V #.f.' ' z z , @ .   ",
"O X % q o.V ..o.j._ c O.m.M.j.p.a.#.d &.f.g.g.p.j.C.B.m.g.S.P.P.G.L.D.M.j.V.m.M.j.j.f.g.N ' 7.f.n.m.M.f.V ' a.D.g.N V f ; O . . ",
"> + $ - } N ....g.O.' ' P.H.f.j.j.p.c h N } f.f.h.f.j.j.m.j.M.M.n.C.M.S.D.S.C.s.s.f.p.@.c O.#.h.j.G.Z.} c } Z.s.Z...c h % # . O ",
"; # $ % c N ..o.$.&.O.c I.Z.Z.j.j.M.p.f _ c &.i.f.j.j.m.s.#.f.&.$.p.n.Z.Z.g.f.j.j.p.@...N h.V $.A.A.' [ [ 7.G.i.m.' c d % $ @ + ",
"> @ % % x N ' &.O.g.O.} p.m.H.@.g.p.M.i.h ' c @.' N c _ @.g.&.@.O.' _ [ _ ' O.O.' z N c $.V O.D.D...} V N i.M.m.f.N } h % $ 1 + ",
", # # $ O._ ..O.@.h.' O.' g.m.H.&.g.b.Z._ k / c c N _ } _ c N _ _ N _ ' _ c g u z c h &.' g.Z.U.M.i.O.[ z _ p.g.$...p.h * < * $ ",
"4 , # + | O.' @.j.g.' ' O.@.f.G.G.@.&.j.&.O.h | O.' N o.&.p.$.@.$.' _ c V N N z z [ p.[ O.f.I.M.$.F.m.i...f V g._ i.O.c * , 4 % ",
"4 q 1 % s O.@.j.l.j.O.V | f.p.p.Z.A.&.O.f.O.p._ _ j.j.M.M.M.S.m.Z.M.j.o.O.@.O.f.i.b.O.g.f.A.D.O.h.A.b.m...c z _ _ p.O.z % w 6 > ",
", y 9 4 w @.&.n.M.g._ _ @.g.j.p.@.M.G.f.[ f.O.g.H.b.p.i._ V ' #.$.j.j.j.f.p.p.+.h.h.b...n.H.f.p.Z.s.f.S.i.h c p.O.h _ h : y y > ",
", w 8 4 4 ' $.m.H.m.O...O.p.f.f.p.[ p.H.G.f...#.j.J.P.M.g.j.i.O.f.j.j.p.$.a.f.j.D.M.' h.G.n.O.n.Z.j.j.g.c h ' f.&._ 9 _ 4 9 y > ",
", u w 8 f _ c S.H.G.i...' N i.h.n.b.f.O.b.G.m.[ } @.b.H.H.A.M.f.f.p.p.j.j.Z.A.M.g.a.n.I.D.o.g.n.h.h.h._ h N O.j.p.[ s t 5 6 9 4 ",
", q q 9 d ' O.g.D.U.Z.' _ [ N ' @.i.d.p.O.#.n.C.g.O.@.a.M.D.Z.Z.H.U.G.G.g.i.n.j.n.J.Z.n.' j.C.k.f.&.' j c } p.g.O.O.' c 9 4 : - ",
"- 9 9 5 w @.O.@.M.n.Y.$.O._ ' c c _ | %.O.O.&.@.f.l.f.&.@.} o.| _ ' @.@.p.a.p.s.M.p.f.o.@.p.$.O.} h g z ..o.j.V f.$.' O.w : , % ",
"> 2 y y t c O.i.O.C.M.Z.[ _ [ o.&.o.| _ N g z V O.[ ' ' N h k c c c c c V V V C V V h z j z z j h h V ..i.j.' j.p.$...O.m % : % ",
"% , 5 > g h h @.&.f.m.D.M.M.h.$.O.&.l.p.&.} V [ ..o.[ | o._ o.d.p.d.&.@.O.O.' ' c N _ _ _ h j N / [ g.j.n.f.p.n.#.V O.x 6 > $ > ",
"% , , 3 M m c / O.' j.m.A.C.p.O.$.p.@.j.C.S.M.M.B.M.S.S.S.m.d.O.f.f.$.&.i.f.l.m.j.l.l.[ _ _ &.m.m.S.m.M.n...g.s...N o.k 6 , # % ",
": # , - g N N O.' i.O.p.m.Z.D.G.b...+.$.p.g.m.M.a...N N O.&.O.f.f.g.j.M.b.p.&..._ | o.f.p.j.S.M.S.m.M.M.[ f.G...N _ o.j q 4 < * ",
"> > % # t O.c c V ' } [ } f.D.S.I.P.g.' ' } z z N c V V [ | O.&.O._ c z j z g g c c c O.| p.g.#.&.M.j.@.$.i.[ _ V ' B p i 2 4 4 ",
"% % : $ 5 B ' c g h V _ _ N c ' C N &.M.@.z h N [ O...O.O.O.O.c z N N N N c c z N N N ) O.} _ V C _ N h V } _ [ } c p w j 5 5 9 ",
": * * % e M Y | h N o.O._ c m O.p.O./ h g c ' c ' O.p.M.M.m.g.&.' ' [ ' _ } o.O.O.C h c h c h _ &.&.c _ o.@.[ } | z g y i q > 5 ",
"> : $ # y J M y b j c v s I G j h O.O.| c g X.c B C _ o.o._ V c g 9 t y y j y f X.w y q 8 w m m g y d h c / h g z 9 m y w i > 5 ",
", > @ % p M j M g M h z 9 B J j B k c ;.Z j Q Q G 4.w 4 4 # t d d q i p Q D 5 B m q g 8 , > b j i =.M M H d 8 : 4 j M q q u - , ",
"4 2 + % w j j S B J j K 9 G S y h 7 4 0.K g S ;.;.c.j 9 3 * y g 9 9 w 9 4.M > 3.I n b q & 1 M G B K J K B 6.7 7 5 j j y 9 w % > ",
"4 % + # ; u j K T b m j j B m B l 7 w g ;.m I H -.9.j 8 7 * j j e 8 9 5 m m 4 S j m g e < 5 J F B p Q K T I r < g q w i g 5 : , ",
"- o + + = 4 j B ;.m b q w g g K { d 4 y 4.J 6.=.K r.i w 7 : j j e 9 9 5 u y y B j B y 9 7 w H Z m q D S 9.J b 1 j M y M j - , 4 "
};
