/* XPM */
static char *_51a992dfc2141c3f1b4764562cb5cc4myCoOjeVibO1DGA2[] = {
/* columns rows colors chars-per-pixel */
"64 64 7 1 ",
"  c #EDEBCB",
". c #E7E4BB",
"X c #E3DBB0",
"o c #DAD2A3",
"O c #D5C496",
"+ c #D1BA8A",
"@ c #C6AE71",
/* pixels */
"            ..      .  .    ..     .        ......XX...X.....XXX",
"....    .....    ......   ... . ...   ..  ......XXX...XXXX....Xo",
"X..  ....X.. ...  ...X.. ...XX....  ..XXX..XXX.XXXXXXX.XX...Xooo",
"..... ....XXX.........XX.XX..XX..X...XXXXXX.XXXXXXXXXXXXXX.XXXoo",
"XXX.X..X.XXoooXX.X..XX.XoX.ooXoXXXXXooXXooXXXoooXXoXXXooXXXXoooO",
"XooXXXX.oooooOooX..XooXXXoooooXXXooooXXoooOoXXooooXXoooooXoooooO",
"ooXXoooOOooOooOOoooooOooooOOOoooooooOOoOOOooooooooooOoOOooOOooOO",
"oOoOOoooOOOOOooOOOooOoOoOOOOoOOOooOOOoOOOOOOoooOoOoooOOoOOOooOOO",
"O+++OOO+++@++OO+OOOOOO+OOO+OOO++OO+OOO+OO+++OOOOOoOOOO++OOOO+OO+",
"OO+++O++@@@@+++OOO+O++++OOO++++@@+++OOO++++@+OO+O+OOOOO+++++OO++",
"+++@++@@+@@++@++++++@+@+++++++++@@@++++++@@++++++@+++++++@@@+++@",
"@@@@@@@@@@@@@++@@++@@@++@@@+@+@@@@@@@@+@@@@@@@++@@@@++@@@@@+@+@@",
"              .  .    .. ....................................X+@",
"  ..........................XXXX..........XXX.............XXXo+@",
" .....XXXXoX..XXXXXXoX..XX.XooooooXX..XXoXXoXX..XX.XXXooooOoXX+@",
" ..XXXoXXXXoXXXXXXooXXXXXXXXXoXXoooXX..XXooOooXXooX.XXXoOOoOoX+@",
" .XooXooXoooooooXXXo@@@@@@@@XooXXXoo@@@@@@@@XXooooooXXoooOOooo+@",
" .XXooXXoooooooooXXX++++++@@oXXXXooo++++++@@XXXXoooXXooOOOoooo+@",
"...XXXoooOOooooXXXoo+++++++@ooXXoooo+++++++@oXXXoXooooooOooXoo+@",
"...XXXXoOOooooXXXooO+++++++@oooooooo+++++++@oooXXooooooOOoXXXXO@",
" ..XooooooOooOooXXOO+++++++@oOooooOO+++++++@ooooooooooOOOOoXXoO+",
" .X.XoooooooooOOoooO+++++++@OooooOOO+++++++@XoooOOOoXooOOOXooo++",
"..XXooXoXoooOOOooooo+++++++@OoOOoooO+++++++@oXoOOOoXXoooOoooXo++",
".XXXXooXoooooOoooooO+++++++@OOOOOoOo+++++++@ooOooOOoXXoOOoOooX++",
".XoooOOoooooooooOOooXXXXXXXX@@@@@@@@XXXXXXXoooooOooooOoOOOOOoo++",
".XXoOOooooOOooOOOoooooOooXoo@@@@@@@@XXooooooooooooooOooOOOOoXoO+",
"XXXXXoOooOOooooOoooooOOOoooO@@@@@@@@oXXooooXXoooooXXooOoOOoOoXO@",
"X.XXoooooooooXXoooooOOoXOoOO@@@@@@@@OOOoOoXooooXoooXXoooOOOoooO@",
"X..XXXooXOooXXoXooOOooXX@@@@@@@@@@@@@@@@OooooXXooooooOoOOOOOoo+@",
"XX.XXXXXOooooooooooOOXoX@@@@@@@@@@@@@@@@OOoOooXXooooXOOOOOOOOO+@",
".XXXooXooooXXooooooooOoo@@@@@@@@@@@@@@@@oOOoooooOoooXoOOOOOOOo+@",
"XXXooXooooXoXXXXoooooooO@@@@@@@@@@@@@@@@oOoooOooOOoXooOOoOOooO+@",
".XXoOooooooooooXXXoooOoO@@@@XXXXXXXX@@@@XoooOooOOOoXXXoOooOOoo+@",
".XooOOooOoooooXXXoooOOoo@@@@XXXXooXo@@@@XooXoooOoOooXoXooOOoOO+@",
".XoooOOOoXoXXoooooXooOOo@@@@XoooOooO@@@@XXXoooOOooOooooOoOOOOO+@",
".XoOOOOoooXXooOOoooXooOo@@@@oooOOooO@@@@XXooOoOOoooooOoOOOOOOO+@",
".XooOOoooooooooOOOoooooo@@@@oooOOoOO@@@@XoooOOOOOooooOOOOOOOOO+@",
".XOOOoOOooooOOOOOoOOoooo@@@@ooOOoOOO@@@@ooOOOOOOOOooOOOOOOOOOO+@",
"OOOOOOOOOOOOOO+++++++OOOOOOOOO++++++OOOOO++++++++++++++++@@@@@@@",
"OOOO+++++++++++++++++++++++++++++++++++++@@@@@@@@@@@@@@@@@@@@@@@",
"              ..      ..  ...............X.XX.....XXXX....XXXXO@",
"    .................XXXXXXXXXXXXXXXXXXXXXXXXXXXXXXXXXXXXXXXXOO@",
"  ..X....XXoXXXXXXoXXooXXXXXooXXooooXXXXooooooXXooXXXXXoooXXoXO+",
" ..XXXXoooooooXXXoooooXXXooooooXXooooooXXXooooooo++++XooXXXoXX++",
" .XXoooooXXooooooXXoooooXXooO++oooooooooXoOoOoo+@@@@@@+ooXoooo+@",
" .oooOOoXXo++++oXXoXooooooo+@@@@+OoooXXooooOO+@@+XXXX+@@+oooOO+@",
"..OoOOooo+@@@@@@+oooooOOoo+@+XX+@+OoXXoooOOO+@+XXoXXXXO+@+OooO+@",
"..oOOOoo+@+XXXX+@+oooooOO+@+OOXX+@+ooOooooO+@+XXXXXXoXXX+@oOOo+@",
" .oooOOo@+XXooXX+@Xoooo+@@+OoOooX+@oOOOooo+@+XoXooOooOoXX+oooX+@",
" .OoooO+@XXXXXoOX@+Xo+@@+OOOOoooXX@+Oooo+++@OOOooooOOOOoX@+oXX+@",
"..oOoO+@+XooooXOO@+++XXoOOoooooooX@+oO++o+@+OOoOooooOOXXX@+ooO+@",
".XOO+@@+XoooooOOO@+XXooOoOOoooooo+@X+++oX+@OOOoooooOOooXX@+oooO@",
".XOOO+XoooXXoOoo+@XXXXoooooooOoOO++XXXXXo+@OoOoOOoooooXXo@+ooXO+",
".XOoOXXooXXoooO+@+XooooooooOoOOO++XXXXooo+@oooooOOOoooooo@+ooX++",
"XXooooXXXoooo+@@+XooooOOooooOO++OXXooooooo@ooOOooOooooooo@oooX+@",
"XXoooOOXoOOo+++XXooOOOOoooOO+++OXXoooooooo+oooOOoooooooOo+oooX++",
"XXoOOOooOooOOoXXooooOOOOoooOOXXXooooooOooXXoooOooOooooooOXoooo+@",
"XXooOoooooOOoooooooooooOOoooooXXXOOooOooooXXoOooOOoooooOOoooXo+@",
".XXooXooooooooooooOoXXOoooooooooooOOOOoOooXoXXoooOOoooooXXooXoO+",
".XXoXXXooooOooooOoOOoXXooooOooooOOOOooOOoooooXXOOOOOooXooXXooXO+",
".XXXXXoooooOOoooOOoOoooXooOOooOOOooooOOoOOooooooOOoooooXXoooXX++",
"XXXXXXXXooOOoooOOoooooooOOOOOOooooooOOoooOOoooOOooooXXXXXXXXoo++",
"@++++OO++OOO+OOOOOOO++++++++++OO+++++++++++++++++++++++++++++++@",
"@@@@++@@++++@@++++++++@@@@@@@@++++@@@@@@@@@@@@@@@@@@@@@@@@@@@@@@"
};
